# xmcd CD database file
#
# Track frame offsets:
#	150
#	14791
#	39957
#	84304
#	113166
#	148199
#	159507
#	177779
#	216986
#	245771
#	274590
#
# Disc length: 3829 seconds
#
# Revision: 0
# Processed by: cddbd v1.5.2PL0 Copyright (c) Steve Scherf et al.
# Submitted via: CDex 1.51
#
DISCID=980ef30b
DTITLE=Eric Revis - Tales Of The Stuttering Mime
DYEAR=2004
DGENRE=Jazz
TTITLE0=Isitis
TTITLE1=Love/Stranger
TTITLE2=Tainted
TTITLE3=Ayanna
TTITLE4=The Enemy Flying
TTITLE5=Lulu's Back In Town
TTITLE6=Miles Sebastian
TTITLE7=Black Elk Speaks
TTITLE8=Phi
TTITLE9=11:11
TTITLE10=Muldoon
EXTD=YEAR: 2004
EXTT0=
EXTT1=
EXTT2=
EXTT3=
EXTT4=
EXTT5=
EXTT6=
EXTT7=
EXTT8=
EXTT9=
EXTT10=
PLAYORDER=
